<?xml version="1.0" encoding="utf-8"?>
<!-- Generator: Adobe Illustrator 28.0.0, SVG Export Plug-In . SVG Version: 6.00 Build 0)  -->
<svg version="1.1" id="Ebene_1" xmlns="http://www.w3.org/2000/svg" xmlns:xlink="http://www.w3.org/1999/xlink" x="0px" y="0px"
	 viewBox="0 0 24 25" style="enable-background:new 0 0 24 25;" xml:space="preserve">
<style type="text/css">
	.st0{fill:#FFA336;}
</style>
<path class="st0" d="M10.4,4.4c0-0.9-0.4-1.9-1.1-2.5c-0.7-0.7-1.6-1-2.5-1S5,1.2,4.3,1.8C3.6,2.5,3.3,3.4,3.3,4.4s0.4,1.9,1.1,2.5
	c0.7,0.7,1.6,1,2.5,1s1.9-0.4,2.5-1C10.1,6.2,10.4,5.3,10.4,4.4z M4.6,4.4c0-0.3,0.1-0.6,0.2-0.9S5,3,5.2,2.8C5.5,2.5,5.7,2.4,6,2.3
	c0.3-0.1,0.6-0.2,0.9-0.2c0.3,0,0.6,0.1,0.9,0.2C8,2.4,8.3,2.5,8.5,2.8C8.7,3,8.9,3.2,9,3.5c0.1,0.3,0.2,0.6,0.2,0.9
	C9.1,5,8.9,5.6,8.5,6C8,6.4,7.5,6.6,6.9,6.6C6.2,6.6,5.7,6.4,5.2,6C4.8,5.6,4.6,5,4.6,4.4z M2.3,9.3h5.5c-0.2,0.4-0.4,0.8-0.5,1.3
	h-5c-0.2,0-0.3,0.1-0.5,0.2c-0.1,0.1-0.2,0.3-0.2,0.5v0.7c0,1.6,1.4,3.4,4,3.8c-0.4,0.3-0.8,0.7-1,1.1c-2.8-0.7-4.3-2.9-4.3-4.9
	v-0.7c0-0.5,0.2-1,0.6-1.4C1.3,9.5,1.8,9.3,2.3,9.3z M9.3,9.3C10,8.5,11,7.9,12.1,7.9c0.8,0,1.5,0.3,2.2,0.7
	c0.6,0.5,1.1,1.1,1.3,1.9c0.2,0.7,0.2,1.4,0,2c-0.2,0.7-0.6,1.3-1.1,1.7c-0.5,0.4-1.2,0.7-1.9,0.8c-0.7,0.1-1.4-0.1-2-0.4
	c-0.5-0.2-0.9-0.6-1.2-1c-0.3-0.4-0.6-0.9-0.7-1.4s-0.1-1.1,0-1.6C8.7,10.1,9,9.7,9.3,9.3z M10,10.6c-0.1,0.3-0.2,0.6-0.2,0.9
	s0,0.6,0.1,0.9c0.1,0.3,0.3,0.5,0.5,0.8c0.2,0.2,0.4,0.4,0.7,0.5c0.3,0.1,0.6,0.2,0.9,0.2c0.3,0,0.6,0,0.9-0.1
	c0.3-0.1,0.5-0.3,0.8-0.5s0.4-0.4,0.5-0.7c0.3-0.5,0.3-1.2,0.1-1.7c-0.2-0.6-0.6-1-1.2-1.3c-0.5-0.3-1.2-0.3-1.7-0.1
	C10.7,9.6,10.3,10,10,10.6z M19.5,16.8c-0.2-0.4-0.6-0.8-1-1.1c2.6-0.4,4-2.2,4-3.8v-0.7c0-0.2-0.1-0.3-0.2-0.5
	c-0.1-0.1-0.3-0.2-0.5-0.2h-5c-0.1-0.5-0.2-0.9-0.5-1.3h5.5c0.5,0,1,0.2,1.4,0.6c0.4,0.4,0.6,0.9,0.6,1.4v0.7
	C23.8,13.9,22.3,16,19.5,16.8z M17.9,16.9c-0.4-0.3-0.8-0.5-1.3-0.5H7.5c-0.3,0-0.5,0-0.8,0.1c-0.2,0.1-0.5,0.2-0.6,0.4
	c-0.2,0.2-0.3,0.4-0.4,0.6c-0.1,0.2-0.1,0.5-0.1,0.7V19c0,2.6,2.4,5.2,6.5,5.2c4.1,0,6.5-2.6,6.5-5.2v-0.7
	C18.6,17.8,18.4,17.3,17.9,16.9L17.9,16.9z M6.9,18.4c0-0.2,0.1-0.3,0.2-0.5c0.1-0.1,0.3-0.2,0.5-0.2h9.1c0.2,0,0.3,0.1,0.5,0.2
	c0.1,0.1,0.2,0.3,0.2,0.5V19c0,1.9-1.9,3.9-5.2,3.9c-3.4,0-5.2-2-5.2-3.9V18.4z M17.3,0.8c1,0,1.9,0.4,2.5,1
	c0.7,0.7,1.1,1.6,1.1,2.5s-0.4,1.9-1.1,2.5c-0.7,0.7-1.6,1-2.5,1c-1,0-1.9-0.4-2.5-1c-0.7-0.7-1.1-1.6-1.1-2.5s0.4-1.9,1.1-2.5
	C15.4,1.2,16.4,0.8,17.3,0.8z M17.3,2.1c-0.6,0-1.2,0.2-1.6,0.7c-0.4,0.4-0.7,1-0.7,1.6C15,5,15.3,5.6,15.7,6s1,0.7,1.6,0.7
	s1.2-0.2,1.6-0.7c0.4-0.4,0.7-1,0.7-1.6c0-0.6-0.2-1.2-0.7-1.6C18.5,2.3,17.9,2.1,17.3,2.1z"/>
</svg>
