<?xml version="1.0" encoding="utf-8"?>
<!-- Generator: Adobe Illustrator 28.0.0, SVG Export Plug-In . SVG Version: 6.00 Build 0)  -->
<svg version="1.1" id="Ebene_1" xmlns="http://www.w3.org/2000/svg" xmlns:xlink="http://www.w3.org/1999/xlink" x="0px" y="0px"
	 viewBox="0 0 31 31" style="enable-background:new 0 0 31 31;" xml:space="preserve">
<style type="text/css">
	.st0{fill-rule:evenodd;clip-rule:evenodd;fill:#FFA336;}
</style>
<path class="st0" d="M4.9,0.4H4.8c-0.5,0-1,0-1.3,0.1C2.8,0.6,2.3,0.9,1.8,1.4C1.4,1.8,1.1,2.4,1,3C0.9,3.4,0.9,3.8,0.9,4.4v5.7
	c0,0.5,0,1,0.1,1.4c0.1,0.6,0.5,1.2,0.9,1.6c0.4,0.5,1,0.8,1.6,0.9c0.4,0.1,0.8,0.1,1.3,0.1h5.6c0.5,0,1,0,1.3-0.1
	c0.6-0.1,1.2-0.5,1.6-0.9c0.4-0.5,0.7-1,0.9-1.6c0.1-0.4,0.1-0.9,0.1-1.4V4.4c0-0.5,0-1-0.1-1.4c-0.1-0.6-0.5-1.2-0.9-1.6
	c-0.4-0.5-1-0.8-1.6-0.9c-0.4-0.1-0.8-0.1-1.3-0.1H4.9z M4,2.7c0.1,0,0.2,0,0.9,0h5.4c0.7,0,0.8,0,0.9,0c0.2,0,0.4,0.2,0.5,0.3
	c0.1,0.2,0.2,0.3,0.3,0.5c0,0.1,0,0.2,0,1V10c0,0.7,0,0.9,0,1c0,0.2-0.2,0.4-0.3,0.5c-0.1,0.2-0.3,0.3-0.5,0.3c-0.1,0-0.2,0-0.9,0
	H4.9c-0.7,0-0.8,0-0.9,0c-0.2,0-0.4-0.2-0.5-0.3S3.2,11.2,3.1,11c0-0.1,0-0.2,0-1V4.5c0-0.7,0-0.9,0-1c0-0.2,0.2-0.4,0.3-0.5
	C3.6,2.8,3.8,2.7,4,2.7L4,2.7z M20.6,0.4h-0.1c-0.5,0-1,0-1.3,0.1c-0.6,0.1-1.2,0.5-1.6,0.9c-0.4,0.5-0.7,1-0.9,1.6
	c-0.1,0.4-0.1,0.9-0.1,1.4v5.7c0,0.5,0,1,0.1,1.4c0.1,0.6,0.5,1.2,0.9,1.6c0.4,0.5,1,0.8,1.6,0.9c0.4,0.1,0.8,0.1,1.3,0.1h5.6
	c0.5,0,1,0,1.3-0.1c0.6-0.1,1.2-0.5,1.6-0.9c0.4-0.5,0.7-1,0.9-1.6c0.1-0.4,0.1-0.9,0.1-1.4V4.4c0-0.5,0-1-0.1-1.4
	c-0.1-0.6-0.5-1.2-0.9-1.6c-0.4-0.5-1-0.8-1.6-0.9c-0.4-0.1-0.8-0.1-1.3-0.1H20.6z M19.7,2.7c0.1,0,0.2,0,0.9,0H26
	c0.7,0,0.8,0,0.9,0c0.2,0,0.4,0.2,0.5,0.3c0.1,0.2,0.2,0.3,0.3,0.5c0,0.1,0,0.2,0,1V10c0,0.7,0,0.9,0,1c0,0.2-0.2,0.4-0.3,0.5
	c-0.1,0.2-0.3,0.3-0.5,0.3c-0.1,0-0.2,0-0.9,0h-5.4c-0.7,0-0.8,0-0.9,0c-0.2,0-0.4-0.2-0.5-0.3c-0.1-0.2-0.2-0.3-0.3-0.5
	c0-0.1,0-0.2,0-1V4.5c0-0.7,0-0.9,0-1c0-0.2,0.2-0.4,0.3-0.5C19.3,2.8,19.5,2.7,19.7,2.7L19.7,2.7z M4.8,16.5h5.6c0.5,0,1,0,1.3,0.1
	c0.6,0.1,1.2,0.5,1.6,0.9c0.4,0.5,0.7,1,0.9,1.6c0.1,0.4,0.1,0.9,0.1,1.4v5.7c0,0.5,0,1-0.1,1.4c-0.1,0.6-0.5,1.2-0.9,1.6
	c-0.4,0.5-1,0.8-1.6,0.9c-0.4,0.1-0.8,0.1-1.3,0.1H4.8c-0.5,0-1,0-1.3-0.1c-0.6-0.1-1.2-0.5-1.6-0.9c-0.4-0.5-0.7-1-0.9-1.6
	c-0.1-0.4-0.1-0.9-0.1-1.4v-5.7c0-0.5,0-1,0.1-1.4c0.1-0.6,0.5-1.2,0.9-1.6c0.4-0.5,1-0.8,1.6-0.9C3.8,16.5,4.3,16.5,4.8,16.5z
	 M4.9,18.8c-0.7,0-0.8,0-0.9,0c-0.2,0-0.4,0.2-0.5,0.3s-0.2,0.3-0.3,0.5c0,0.1,0,0.2,0,1v5.5c0,0.7,0,0.9,0,1c0,0.2,0.2,0.4,0.3,0.5
	c0.1,0.2,0.3,0.3,0.5,0.3c0.1,0,0.2,0,0.9,0h5.4c0.7,0,0.8,0,0.9,0c0.2,0,0.4-0.2,0.5-0.3c0.1-0.2,0.2-0.3,0.3-0.5c0-0.1,0-0.2,0-1
	v-5.5c0-0.7,0-0.9,0-1c0-0.2-0.2-0.4-0.3-0.5c-0.1-0.2-0.3-0.3-0.5-0.3c-0.1,0-0.2,0-0.9,0H4.9z M20.6,16.5h-0.1c-0.5,0-1,0-1.3,0.1
	c-0.6,0.1-1.2,0.5-1.6,0.9c-0.4,0.5-0.7,1-0.9,1.6c-0.1,0.4-0.1,0.9-0.1,1.4v5.7c0,0.5,0,1,0.1,1.4c0.1,0.6,0.5,1.2,0.9,1.6
	c0.4,0.5,1,0.8,1.6,0.9c0.4,0.1,0.8,0.1,1.3,0.1h5.6c0.5,0,1,0,1.3-0.1c0.6-0.1,1.2-0.5,1.6-0.9c0.4-0.5,0.7-1,0.9-1.6
	c0.1-0.4,0.1-0.9,0.1-1.4v-5.8c0-0.5,0-1-0.1-1.4c-0.1-0.6-0.5-1.2-0.9-1.6c-0.4-0.5-1-0.8-1.6-0.9c-0.4-0.1-0.8-0.1-1.3-0.1H20.6z
	 M19.7,18.8c0.1,0,0.2,0,0.9,0H26c0.7,0,0.8,0,0.9,0c0.2,0,0.4,0.2,0.5,0.3c0.1,0.2,0.2,0.3,0.3,0.5c0,0.1,0,0.2,0,1v5.5
	c0,0.7,0,0.9,0,1c0,0.2-0.2,0.4-0.3,0.5c-0.1,0.2-0.3,0.3-0.5,0.3c-0.1,0-0.2,0-0.9,0h-5.4c-0.7,0-0.8,0-0.9,0
	c-0.2,0-0.4-0.2-0.5-0.3c-0.1-0.2-0.2-0.3-0.3-0.5c0-0.1,0-0.2,0-1v-5.5c0-0.7,0-0.9,0-1c0-0.2,0.2-0.4,0.3-0.5
	C19.3,18.9,19.5,18.8,19.7,18.8L19.7,18.8z"/>
</svg>
