<svg width="191" height="53" viewBox="0 0 191 53" fill="none" xmlns="http://www.w3.org/2000/svg">
<path d="M3.43967 52.4238C2.44688 52.4238 1.62958 52.1018 0.977749 51.4578C0.325917 50.8138 0 50.0015 0 49.0256V19.2843C0 18.2638 0.325917 17.4415 0.977749 16.8174C1.62958 16.1932 2.45189 15.8861 3.43967 15.8861C4.42745 15.8861 5.30492 16.1982 5.93669 16.8174C6.56346 17.4415 6.87934 18.2638 6.87934 19.2843V49.0256C6.87934 50.0015 6.56346 50.8138 5.93669 51.4578C5.30492 52.1018 4.47258 52.4238 3.43967 52.4238ZM31.1777 52.4238C30.1899 52.4238 29.3676 52.1018 28.7157 51.4578C28.0639 50.8138 27.738 50.0015 27.738 49.0256V32.6243C27.738 30.088 27.2667 28.0224 26.319 26.4224C25.3764 24.8224 24.1028 23.6335 22.5033 22.8558C20.9038 22.0781 19.0736 21.6867 17.0028 21.6867C15.1125 21.6867 13.4027 22.0632 11.8734 22.8211C10.3441 23.579 9.12566 24.5895 8.22814 25.8527C7.3256 27.1208 6.87934 28.5772 6.87934 30.2218H2.62739C2.62739 27.423 3.31432 24.9214 4.68818 22.722C6.06205 20.5227 7.93732 18.779 10.324 17.4861C12.7107 16.1982 15.3883 15.5542 18.3566 15.5542C21.325 15.5542 24.2382 16.213 26.6901 17.5208C29.1419 18.8335 31.0774 20.7555 32.4964 23.2868C33.9154 25.818 34.6224 28.9338 34.6224 32.6243V49.0256C34.6224 50.0015 34.2964 50.8138 33.6446 51.4578C32.9928 52.1018 32.1705 52.4238 31.1827 52.4238H31.1777Z" fill="white"/>
<path d="M61.0132 52.4238C57.7518 52.4238 54.8241 51.6143 52.2349 50.0003C49.6408 48.3864 47.5993 46.19 46.1006 43.4211C44.6019 40.6522 43.855 37.518 43.855 34.0186C43.855 30.5192 44.6716 27.3752 46.2998 24.5865C47.9329 21.7978 50.1437 19.5916 52.937 17.9776C55.7303 16.3637 58.8672 15.5542 62.3526 15.5542C65.838 15.5542 68.9649 16.3637 71.7383 17.9776C74.5068 19.5965 76.7076 21.7978 78.3407 24.5865C79.9739 27.3752 80.7855 30.5241 80.7855 34.0186H78.1714C78.1714 37.518 77.4246 40.6522 75.9258 43.4211C74.4271 46.19 72.3856 48.3814 69.7915 50.0003C67.1973 51.6192 64.2746 52.4238 61.0132 52.4238ZM62.3526 46.4466C64.6331 46.4466 66.6646 45.9037 68.4521 44.8179C70.2396 43.732 71.6487 42.2513 72.6744 40.3659C73.7001 38.4854 74.218 36.368 74.218 34.0186C74.218 31.6692 73.7051 29.4926 72.6744 27.6071C71.6437 25.7266 70.2396 24.241 68.4521 23.1552C66.6646 22.0693 64.6331 21.5264 62.3526 21.5264C60.0721 21.5264 58.0954 22.0693 56.288 23.1552C54.4805 24.241 53.0465 25.7266 51.9959 27.6071C50.9453 29.4926 50.4225 31.6248 50.4225 34.0186C50.4225 36.4124 50.9453 38.4805 51.9959 40.3659C53.0465 42.2513 54.4756 43.732 56.288 44.8179C58.0954 45.9037 60.117 46.4466 62.3526 46.4466ZM77.3648 52.2263C76.3789 52.2263 75.5673 51.9055 74.92 51.2639C74.2727 50.6222 73.9491 49.8128 73.9491 48.8405V38.6729L75.2238 31.6297L80.7855 34.0235V48.8405C80.7855 49.8128 80.4619 50.6222 79.8146 51.2639C79.1673 51.9055 78.3507 52.2263 77.3698 52.2263H77.3648Z" fill="white"/>
<path d="M61.0132 52.4238C57.7518 52.4238 54.8241 51.6143 52.2349 50.0003C49.6408 48.3864 47.5993 46.19 46.1006 43.4211C44.6019 40.6522 43.855 37.518 43.855 34.0186C43.855 30.5192 44.6716 27.3752 46.2998 24.5865C47.9329 21.7978 50.1437 19.5916 52.937 17.9776C55.7303 16.3637 58.8672 15.5542 62.3526 15.5542C65.838 15.5542 68.9649 16.3637 71.7383 17.9776C74.5068 19.5965 76.7076 21.7978 78.3407 24.5865C79.9739 27.3752 80.7855 30.5241 80.7855 34.0186H78.1714C78.1714 37.518 77.4246 40.6522 75.9258 43.4211C74.4271 46.19 72.3856 48.3814 69.7915 50.0003C67.1973 51.6192 64.2746 52.4238 61.0132 52.4238ZM62.3526 46.4466C64.6331 46.4466 66.6646 45.9037 68.4521 44.8179C70.2396 43.732 71.6487 42.2513 72.6744 40.3659C73.7001 38.4854 74.218 36.368 74.218 34.0186C74.218 31.6692 73.7051 29.4926 72.6744 27.6071C71.6437 25.7266 70.2396 24.241 68.4521 23.1552C66.6646 22.0693 64.6331 21.5264 62.3526 21.5264C60.0721 21.5264 58.0954 22.0693 56.288 23.1552C54.4805 24.241 53.0465 25.7266 51.9959 27.6071C50.9453 29.4926 50.4225 31.6248 50.4225 34.0186C50.4225 36.4124 50.9453 38.4805 51.9959 40.3659C53.0465 42.2513 54.4756 43.732 56.288 44.8179C58.0954 45.9037 60.117 46.4466 62.3526 46.4466ZM77.3648 52.2263C76.3789 52.2263 75.5673 51.9055 74.92 51.2639C74.2727 50.6222 73.9491 49.8128 73.9491 48.8405V38.6729L75.2238 31.6297L80.7855 34.0235V48.8405C80.7855 49.8128 80.4619 50.6222 79.8146 51.2639C79.1673 51.9055 78.3507 52.2263 77.3698 52.2263H77.3648Z" fill="white"/>
<path d="M99.8514 52.4239C97.9276 52.4239 96.223 51.8854 94.7375 50.8132C93.252 49.7411 92.0929 48.2751 91.2649 46.4151C90.4321 44.5601 90.0181 42.4208 90.0181 40.0023V3.35597C90.0181 2.37361 90.325 1.56579 90.9338 0.937477C91.5425 0.309168 92.3315 0 93.2959 0C94.2602 0 95.0443 0.314155 95.658 0.937477C96.2717 1.56579 96.5736 2.36863 96.5736 3.35597V40.0073C96.5736 41.6629 96.8805 43.0292 97.4892 44.1013C98.1029 45.1734 98.887 45.712 99.8514 45.712H101.493C102.364 45.712 103.076 46.0261 103.626 46.6495C104.171 47.2778 104.444 48.0806 104.444 49.0679C104.444 50.0553 104.03 50.8581 103.197 51.4864C102.364 52.1147 101.298 52.4239 99.9829 52.4239H99.8514Z" fill="white"/>
<path d="M127.057 52.9999C123.954 52.9999 121.176 52.3358 118.724 51.0025C116.272 49.6693 114.337 47.7173 112.918 45.1465C111.499 42.5706 110.792 39.4111 110.792 35.6631V19.0055C110.792 18.0144 111.117 17.1893 111.769 16.5352C112.421 15.8812 113.243 15.5542 114.231 15.5542C115.219 15.5542 116.041 15.8812 116.693 16.5352C117.345 17.1893 117.671 18.0144 117.671 19.0055V35.6631C117.671 38.1936 118.142 40.2815 119.09 41.9266C120.033 43.5768 121.316 44.7943 122.936 45.5842C124.555 46.374 126.38 46.7715 128.401 46.7715C130.422 46.7715 132.056 46.3891 133.566 45.6194C135.07 44.8496 136.278 43.8133 137.176 42.5052C138.073 41.1972 138.525 39.7281 138.525 38.1031H142.777C142.777 40.9054 142.09 43.4309 140.716 45.6898C139.342 47.9487 137.477 49.7297 135.115 51.0378C132.753 52.3458 130.066 52.9999 127.047 52.9999H127.057ZM141.974 52.6628C140.981 52.6628 140.164 52.3358 139.512 51.6817C138.86 51.0277 138.535 50.2026 138.535 49.2115V19.0055C138.535 17.9691 138.86 17.1339 139.512 16.5C140.164 15.8661 140.986 15.5542 141.974 15.5542C142.962 15.5542 143.84 15.8712 144.471 16.5C145.103 17.1339 145.414 17.9691 145.414 19.0055V49.2115C145.414 50.2076 145.098 51.0277 144.471 51.6817C143.84 52.3358 143.007 52.6628 141.974 52.6628Z" fill="white"/>
<path d="M172.643 52.9999C169.54 52.9999 166.762 52.3358 164.31 51.0025C161.858 49.6693 159.923 47.7173 158.504 45.1465C157.085 42.5706 156.378 39.4111 156.378 35.6631V19.0055C156.378 18.0144 156.704 17.1893 157.355 16.5352C158.007 15.8812 158.83 15.5542 159.817 15.5542C160.805 15.5542 161.627 15.8812 162.279 16.5352C162.931 17.1893 163.257 18.0144 163.257 19.0055V35.6631C163.257 38.1936 163.728 40.2815 164.676 41.9266C165.619 43.5768 166.902 44.7943 168.522 45.5842C170.141 46.374 171.966 46.7715 173.987 46.7715C176.008 46.7715 177.642 46.3891 179.152 45.6194C180.656 44.8496 181.864 43.8133 182.762 42.5052C183.659 41.1972 184.111 39.7281 184.111 38.1031H188.363C188.363 40.9054 187.676 43.4309 186.302 45.6898C184.928 47.9487 183.063 49.7297 180.701 51.0378C178.339 52.3458 175.652 52.9999 172.633 52.9999H172.643ZM187.56 52.6628C186.568 52.6628 185.75 52.3358 185.098 51.6817C184.447 51.0277 184.121 50.2026 184.121 49.2115V19.0055C184.121 17.9691 184.447 17.1339 185.098 16.5C185.75 15.8661 186.573 15.5542 187.56 15.5542C188.548 15.5542 189.426 15.8712 190.057 16.5C190.689 17.1339 191 17.9691 191 19.0055V49.2115C191 50.2076 190.684 51.0277 190.057 51.6817C189.426 52.3358 188.593 52.6628 187.56 52.6628Z" fill="white"/>
<path d="M62.3202 41.4783C66.1445 41.4783 69.2447 38.2543 69.2447 34.2773C69.2447 30.3002 66.1445 27.0762 62.3202 27.0762C58.4959 27.0762 55.3958 30.3002 55.3958 34.2773C55.3958 38.2543 58.4959 41.4783 62.3202 41.4783Z" fill="#FFA336"/>
</svg>
