<svg width="148" height="40" viewBox="0 0 148 40" fill="none" xmlns="http://www.w3.org/2000/svg">
<path d="M2.6653 39.5652C1.89601 39.5652 1.26271 39.3222 0.757628 38.8362C0.252543 38.3502 0 37.7371 0 37.0006V14.5543C0 13.7841 0.252543 13.1635 0.757628 12.6925C1.26271 12.2214 1.8999 11.9896 2.6653 11.9896C3.43069 11.9896 4.11062 12.2251 4.60016 12.6925C5.08582 13.1635 5.33059 13.7841 5.33059 14.5543V37.0006C5.33059 37.7371 5.08582 38.3502 4.60016 38.8362C4.11062 39.3222 3.46566 39.5652 2.6653 39.5652ZM24.1586 39.5652C23.3932 39.5652 22.756 39.3222 22.2509 38.8362C21.7459 38.3502 21.4933 37.7371 21.4933 37.0006V24.6222C21.4933 22.7081 21.1281 21.1491 20.3938 19.9415C19.6634 18.734 18.6765 17.8367 17.4371 17.2498C16.1977 16.6628 14.7796 16.3675 13.175 16.3675C11.7102 16.3675 10.3853 16.6516 9.20032 17.2236C8.01531 17.7956 7.07119 18.5583 6.37573 19.5116C5.67638 20.4687 5.33059 21.5678 5.33059 22.809H2.03588C2.03588 20.6967 2.56816 18.8088 3.63273 17.1488C4.69729 15.4889 6.15038 14.1729 7.99977 13.1972C9.84916 12.2251 11.9239 11.7391 14.224 11.7391C16.5241 11.7391 18.7814 12.2364 20.6813 13.2233C22.5812 14.2141 24.0809 15.6646 25.1804 17.575C26.28 19.4854 26.8278 21.837 26.8278 24.6222V37.0006C26.8278 37.7371 26.5753 38.3502 26.0702 38.8362C25.5651 39.3222 24.9279 39.5652 24.1625 39.5652H24.1586Z" fill="#071940"/>
<path d="M47.2773 39.5652C44.7501 39.5652 42.4815 38.9543 40.4752 37.7362C38.4651 36.5181 36.8832 34.8605 35.7219 32.7707C34.5606 30.681 33.9819 28.3156 33.9819 25.6745C33.9819 23.0335 34.6146 20.6606 35.8763 18.556C37.1417 16.4513 38.8548 14.7862 41.0192 13.5681C43.1837 12.35 45.6144 11.7391 48.3151 11.7391C51.0159 11.7391 53.4388 12.35 55.5878 13.5681C57.733 14.7899 59.4383 16.4513 60.7038 18.556C61.9693 20.6606 62.5982 23.0372 62.5982 25.6745H60.5726C60.5726 28.3156 59.9939 30.681 58.8326 32.7707C57.6713 34.8605 56.0894 36.5144 54.0793 37.7362C52.0691 38.958 49.8044 39.5652 47.2773 39.5652ZM48.3151 35.0542C50.0822 35.0542 51.6563 34.6444 53.0414 33.8249C54.4265 33.0054 55.5184 31.8879 56.3132 30.4649C57.108 29.0457 57.5092 27.4476 57.5092 25.6745C57.5092 23.9014 57.1118 22.2587 56.3132 20.8357C55.5145 19.4165 54.4265 18.2952 53.0414 17.4757C51.6563 16.6562 50.0822 16.2464 48.3151 16.2464C46.548 16.2464 45.0163 16.6562 43.6158 17.4757C42.2153 18.2952 41.1041 19.4165 40.29 20.8357C39.476 22.2587 39.0708 23.8679 39.0708 25.6745C39.0708 27.4812 39.476 29.042 40.29 30.4649C41.1041 31.8879 42.2114 33.0054 43.6158 33.8249C45.0163 34.6444 46.5828 35.0542 48.3151 35.0542ZM59.9476 39.4162C59.1837 39.4162 58.5548 39.1741 58.0532 38.6898C57.5517 38.2056 57.3009 37.5947 57.3009 36.8608V29.1872L58.2886 23.8716L62.5982 25.6783V36.8608C62.5982 37.5947 62.3474 38.2056 61.8458 38.6898C61.3443 39.1741 60.7115 39.4162 59.9515 39.4162H59.9476Z" fill="#071940"/>
<path d="M77.3717 39.5652C75.881 39.5652 74.5602 39.1588 73.4092 38.3496C72.2581 37.5405 71.3599 36.434 70.7184 35.0303C70.073 33.6302 69.7523 32.0157 69.7523 30.1904V2.53281C69.7523 1.79141 69.99 1.18173 70.4618 0.70753C70.9335 0.233334 71.5449 0 72.2921 0C73.0393 0 73.6469 0.237098 74.1224 0.70753C74.5979 1.18173 74.8319 1.78764 74.8319 2.53281V30.1942C74.8319 31.4437 75.0697 32.4749 75.5414 33.284C76.0169 34.0932 76.6245 34.4996 77.3717 34.4996H78.6435C79.3191 34.4996 79.87 34.7367 80.2965 35.2071C80.7192 35.6813 80.9305 36.2872 80.9305 37.0324C80.9305 37.7776 80.6097 38.3835 79.9644 38.8577C79.3191 39.3319 78.4926 39.5652 77.4736 39.5652H77.3717Z" fill="#071940"/>
<path d="M98.4528 40C96.0478 40 93.8953 39.4988 91.9954 38.4926C90.0955 37.4864 88.5958 36.0132 87.4963 34.0729C86.3968 32.1289 85.8489 29.7444 85.8489 26.9156V14.3439C85.8489 13.5959 86.1015 12.9732 86.6066 12.4795C87.1116 11.9859 87.7488 11.7391 88.5142 11.7391C89.2796 11.7391 89.9168 11.9859 90.4219 12.4795C90.927 12.9732 91.1795 13.5959 91.1795 14.3439V26.9156C91.1795 28.8255 91.5447 30.4013 92.2791 31.6429C93.0095 32.8883 94.0041 33.8071 95.2591 34.4033C96.514 34.9994 97.9282 35.2994 99.494 35.2994C101.06 35.2994 102.326 35.0108 103.496 34.4298C104.661 33.8489 105.598 33.0667 106.293 32.0795C106.989 31.0923 107.338 29.9836 107.338 28.7572H110.633C110.633 30.8721 110.101 32.7782 109.036 34.483C107.972 36.1878 106.526 37.532 104.696 38.5192C102.866 39.5064 100.784 40 98.445 40H98.4528ZM110.011 39.7456C109.242 39.7456 108.609 39.4988 108.104 39.0052C107.599 38.5116 107.346 37.8889 107.346 37.1409V14.3439C107.346 13.5617 107.599 12.9314 108.104 12.453C108.609 11.9745 109.246 11.7391 110.011 11.7391C110.777 11.7391 111.457 11.9783 111.946 12.453C112.436 12.9314 112.677 13.5617 112.677 14.3439V37.1409C112.677 37.8927 112.432 38.5116 111.946 39.0052C111.457 39.4988 110.812 39.7456 110.011 39.7456Z" fill="#071940"/>
<path d="M133.776 40C131.371 40 129.219 39.4988 127.319 38.4926C125.419 37.4864 123.919 36.0132 122.82 34.0729C121.72 32.1289 121.172 29.7444 121.172 26.9156V14.3439C121.172 13.5959 121.425 12.9732 121.93 12.4795C122.435 11.9859 123.072 11.7391 123.837 11.7391C124.603 11.7391 125.24 11.9859 125.745 12.4795C126.25 12.9732 126.503 13.5959 126.503 14.3439V26.9156C126.503 28.8255 126.868 30.4013 127.602 31.6429C128.333 32.8883 129.327 33.8071 130.582 34.4033C131.837 34.9994 133.251 35.2994 134.817 35.2994C136.383 35.2994 137.65 35.0108 138.819 34.4298C139.985 33.8489 140.921 33.0667 141.616 32.0795C142.312 31.0923 142.662 29.9836 142.662 28.7572H145.956C145.956 30.8721 145.424 32.7782 144.359 34.483C143.295 36.1878 141.85 37.532 140.02 38.5192C138.19 39.5064 136.107 40 133.768 40H133.776ZM145.335 39.7456C144.565 39.7456 143.932 39.4988 143.427 39.0052C142.922 38.5116 142.669 37.8889 142.669 37.1409V14.3439C142.669 13.5617 142.922 12.9314 143.427 12.453C143.932 11.9745 144.569 11.7391 145.335 11.7391C146.1 11.7391 146.78 11.9783 147.27 12.453C147.759 12.9314 148 13.5617 148 14.3439V37.1409C148 37.8927 147.755 38.5116 147.27 39.0052C146.78 39.4988 146.135 39.7456 145.335 39.7456Z" fill="#071940"/>
<path d="M48.2901 31.3043C51.2534 31.3043 53.6556 28.8711 53.6556 25.8696C53.6556 22.868 51.2534 20.4348 48.2901 20.4348C45.3267 20.4348 42.9245 22.868 42.9245 25.8696C42.9245 28.8711 45.3267 31.3043 48.2901 31.3043Z" fill="#FFA336"/>
</svg>
