<?xml version="1.0" encoding="utf-8"?>
<!-- Generator: Adobe Illustrator 28.0.0, SVG Export Plug-In . SVG Version: 6.00 Build 0)  -->
<svg version="1.1" id="Ebene_1" xmlns="http://www.w3.org/2000/svg" xmlns:xlink="http://www.w3.org/1999/xlink" x="0px" y="0px"
	 viewBox="0 0 25 25" style="enable-background:new 0 0 25 25;" xml:space="preserve">
<style type="text/css">
	.st0{fill-rule:evenodd;clip-rule:evenodd;fill:#FFA336;}
	.st1{fill:#FFA336;}
	.st2{fill:none;stroke:#FFA336;stroke-width:2;stroke-linecap:round;}
</style>
<path class="st0" d="M23,13.1L11.9,2C10.6,0.7,8.8,0,7,0S3.3,0.7,2,2C0.7,3.3,0,5.1,0,7s0.7,3.6,2,4.9L13.1,23c1.3,1.3,3.1,2,4.9,2
	c1.8,0,3.6-0.7,4.9-2c1.3-1.3,2-3.1,2-4.9C25,16.2,24.3,14.4,23,13.1L23,13.1z M3.3,3.3c1-1,2.3-1.5,3.7-1.5c1.4,0,2.7,0.5,3.7,1.5
	l11.1,11.1c0.5,0.5,0.9,1.1,1.2,1.7c0.3,0.6,0.4,1.3,0.4,2c0,0.7-0.1,1.4-0.4,2c-0.3,0.6-0.7,1.2-1.1,1.7c-0.5,0.5-1.1,0.9-1.7,1.1
	c-0.6,0.3-1.3,0.4-2,0.4c-0.7,0-1.4-0.1-2-0.4c-0.6-0.3-1.2-0.7-1.7-1.2L3.3,10.7c-1-1-1.5-2.3-1.5-3.7C1.7,5.6,2.3,4.3,3.3,3.3z"/>
<path class="st1" d="M18.1,8.6l-0.4,1.7c-2.1-0.5-3.9-0.3-5.4,0.8c-1.5,1-2.5,2.9-3,5.8l-1.7-0.3c0.6-3.3,1.8-5.7,3.8-7
	C13.2,8.3,15.5,7.9,18.1,8.6z"/>
<path class="st2" d="M7,4l3,3"/>
</svg>
