<svg width="123" height="123" viewBox="0 0 123 123" fill="none" xmlns="http://www.w3.org/2000/svg">
<circle cx="61.5" cy="61.5" r="61.5" fill="#FFA336"/>
<path d="M46.6984 49.73V56H44.6184V50.24C44.6184 49.7933 44.5084 49.3867 44.2884 49.02C44.0751 48.6533 43.7851 48.3633 43.4184 48.15C43.0584 47.93 42.6518 47.82 42.1984 47.82C41.7584 47.82 41.3551 47.93 40.9884 48.15C40.6218 48.3633 40.3284 48.6533 40.1084 49.02C39.8884 49.3867 39.7784 49.7933 39.7784 50.24V56H37.6984V46H39.7784V47.06C40.1251 46.6467 40.5518 46.32 41.0584 46.08C41.5651 45.84 42.1118 45.72 42.6984 45.72C43.4384 45.72 44.1118 45.9 44.7184 46.26C45.3251 46.62 45.8051 47.1033 46.1584 47.71C46.5184 48.3167 46.6984 48.99 46.6984 49.73ZM56.4792 46H58.5592V56H56.4692L56.3892 54.55C56.0959 55.0633 55.6992 55.4767 55.1992 55.79C54.6992 56.1033 54.1092 56.26 53.4292 56.26C52.6959 56.26 52.0059 56.1233 51.3592 55.85C50.7126 55.57 50.1426 55.1833 49.6492 54.69C49.1626 54.1967 48.7826 53.63 48.5092 52.99C48.2359 52.3433 48.0992 51.65 48.0992 50.91C48.0992 50.1967 48.2326 49.5267 48.4992 48.9C48.7659 48.2667 49.1359 47.7133 49.6092 47.24C50.0826 46.7667 50.6292 46.3967 51.2492 46.13C51.8759 45.8567 52.5459 45.72 53.2592 45.72C53.9859 45.72 54.6259 45.8867 55.1792 46.22C55.7392 46.5467 56.2026 46.9667 56.5692 47.48L56.4792 46ZM53.3792 54.25C53.9659 54.25 54.4792 54.1067 54.9192 53.82C55.3592 53.5267 55.6992 53.1333 55.9392 52.64C56.1859 52.1467 56.3092 51.6 56.3092 51C56.3092 50.3933 56.1859 49.8433 55.9392 49.35C55.6926 48.8567 55.3492 48.4667 54.9092 48.18C54.4759 47.8867 53.9659 47.74 53.3792 47.74C52.7992 47.74 52.2692 47.8867 51.7892 48.18C51.3092 48.4733 50.9292 48.8667 50.6492 49.36C50.3692 49.8533 50.2292 50.4 50.2292 51C50.2292 51.6067 50.3726 52.1567 50.6592 52.65C50.9526 53.1367 51.3359 53.5267 51.8092 53.82C52.2892 54.1067 52.8126 54.25 53.3792 54.25ZM67.0894 53.16L68.9494 54.17C68.496 54.8033 67.9194 55.31 67.2194 55.69C66.526 56.07 65.7727 56.26 64.9594 56.26C64.0394 56.26 63.1994 56.0233 62.4394 55.55C61.686 55.0767 61.0827 54.4433 60.6294 53.65C60.1827 52.85 59.9594 51.9667 59.9594 51C59.9594 50.2667 60.0894 49.5833 60.3494 48.95C60.6094 48.31 60.966 47.75 61.4194 47.27C61.8794 46.7833 62.4127 46.4033 63.0194 46.13C63.626 45.8567 64.2727 45.72 64.9594 45.72C65.7727 45.72 66.526 45.91 67.2194 46.29C67.9194 46.67 68.496 47.18 68.9494 47.82L67.0894 48.83C66.8094 48.4967 66.4827 48.2433 66.1094 48.07C65.736 47.89 65.3527 47.8 64.9594 47.8C64.4127 47.8 63.916 47.95 63.4694 48.25C63.0294 48.5433 62.6794 48.9333 62.4194 49.42C62.166 49.9 62.0394 50.4267 62.0394 51C62.0394 51.5667 62.1694 52.0933 62.4294 52.58C62.6894 53.06 63.0394 53.4467 63.4794 53.74C63.926 54.0333 64.4194 54.18 64.9594 54.18C65.3727 54.18 65.766 54.0867 66.1394 53.9C66.5127 53.7133 66.8294 53.4667 67.0894 53.16ZM79.7008 49.73V56H77.6208V50.24C77.6208 49.7933 77.5108 49.3867 77.2908 49.02C77.0774 48.6533 76.7874 48.3633 76.4208 48.15C76.0608 47.93 75.6541 47.82 75.2008 47.82C74.7608 47.82 74.3574 47.93 73.9908 48.15C73.6241 48.3633 73.3308 48.6533 73.1108 49.02C72.8908 49.3867 72.7808 49.7933 72.7808 50.24V56H70.7008V41H72.7808V47.06C73.1274 46.6467 73.5541 46.32 74.0608 46.08C74.5674 45.84 75.1141 45.72 75.7008 45.72C76.4408 45.72 77.1141 45.9 77.7208 46.26C78.3274 46.62 78.8074 47.1033 79.1608 47.71C79.5208 48.3167 79.7008 48.99 79.7008 49.73ZM43.8293 82.26C42.9093 82.26 42.0693 82.0233 41.3093 81.55C40.556 81.0767 39.9526 80.4433 39.4993 79.65C39.0526 78.85 38.8293 77.9667 38.8293 77C38.8293 76.2667 38.9593 75.5833 39.2193 74.95C39.4793 74.31 39.836 73.75 40.2893 73.27C40.7493 72.7833 41.2826 72.4033 41.8893 72.13C42.496 71.8567 43.1426 71.72 43.8293 71.72C44.7493 71.72 45.586 71.9567 46.3393 72.43C47.0993 72.9033 47.7026 73.54 48.1493 74.34C48.6026 75.14 48.8293 76.0267 48.8293 77C48.8293 77.7267 48.6993 78.4067 48.4393 79.04C48.1793 79.6733 47.8193 80.2333 47.3593 80.72C46.906 81.2 46.376 81.5767 45.7693 81.85C45.1693 82.1233 44.5226 82.26 43.8293 82.26ZM43.8293 80.18C44.3826 80.18 44.8793 80.0333 45.3193 79.74C45.7593 79.4467 46.106 79.06 46.3593 78.58C46.6193 78.0933 46.7493 77.5667 46.7493 77C46.7493 76.42 46.616 75.8867 46.3493 75.4C46.0893 74.9133 45.7393 74.5267 45.2993 74.24C44.8593 73.9467 44.3693 73.8 43.8293 73.8C43.2826 73.8 42.786 73.9467 42.3393 74.24C41.8993 74.5333 41.5493 74.9233 41.2893 75.41C41.036 75.8967 40.9093 76.4267 40.9093 77C40.9093 77.5933 41.0426 78.13 41.3093 78.61C41.576 79.09 41.9293 79.4733 42.3693 79.76C42.816 80.04 43.3026 80.18 43.8293 80.18ZM55.7082 71.72C56.6815 71.72 57.5649 71.9567 58.3582 72.43C59.1582 72.9033 59.7949 73.54 60.2682 74.34C60.7415 75.1333 60.9782 76.0167 60.9782 76.99C60.9782 77.7167 60.8415 78.4 60.5682 79.04C60.2949 79.6733 59.9149 80.2333 59.4282 80.72C58.9482 81.2 58.3882 81.5767 57.7482 81.85C57.1149 82.1233 56.4349 82.26 55.7082 82.26C55.0082 82.26 54.3949 82.1 53.8682 81.78C53.3482 81.4533 52.9215 81.0367 52.5882 80.53V82H50.5082V67H52.5882V73.45C52.9215 72.9367 53.3482 72.52 53.8682 72.2C54.3949 71.88 55.0082 71.72 55.7082 71.72ZM55.6882 80.24C56.2682 80.24 56.7982 80.0933 57.2782 79.8C57.7582 79.5067 58.1382 79.1133 58.4182 78.62C58.7049 78.1267 58.8482 77.5833 58.8482 76.99C58.8482 76.3833 58.7049 75.8333 58.4182 75.34C58.1315 74.8467 57.7482 74.4567 57.2682 74.17C56.7882 73.8767 56.2615 73.73 55.6882 73.73C55.1082 73.73 54.5982 73.8767 54.1582 74.17C53.7182 74.4633 53.3749 74.8567 53.1282 75.35C52.8815 75.8433 52.7582 76.39 52.7582 76.99C52.7582 77.59 52.8815 78.1367 53.1282 78.63C53.3749 79.1233 53.7182 79.5167 54.1582 79.81C54.5982 80.0967 55.1082 80.24 55.6882 80.24ZM67.1785 82.26C66.2585 82.26 65.4185 82.0233 64.6585 81.55C63.9052 81.0767 63.3018 80.4433 62.8485 79.65C62.4018 78.85 62.1785 77.9667 62.1785 77C62.1785 76.2667 62.3085 75.5833 62.5685 74.95C62.8285 74.31 63.1852 73.75 63.6385 73.27C64.0985 72.7833 64.6318 72.4033 65.2385 72.13C65.8452 71.8567 66.4918 71.72 67.1785 71.72C67.9452 71.72 68.6485 71.88 69.2885 72.2C69.9285 72.5133 70.4752 72.95 70.9285 73.51C71.3818 74.0633 71.7152 74.7033 71.9285 75.43C72.1418 76.15 72.2052 76.9167 72.1185 77.73H64.4085C64.4952 78.19 64.6618 78.6067 64.9085 78.98C65.1618 79.3467 65.4818 79.6367 65.8685 79.85C66.2618 80.0633 66.6985 80.1733 67.1785 80.18C67.6852 80.18 68.1452 80.0533 68.5585 79.8C68.9785 79.5467 69.3218 79.1967 69.5885 78.75L71.6985 79.24C71.2985 80.1267 70.6952 80.8533 69.8885 81.42C69.0818 81.98 68.1785 82.26 67.1785 82.26ZM64.3385 76.14H70.0185C69.9518 75.66 69.7818 75.2267 69.5085 74.84C69.2418 74.4467 68.9052 74.1367 68.4985 73.91C68.0985 73.6767 67.6585 73.56 67.1785 73.56C66.7052 73.56 66.2652 73.6733 65.8585 73.9C65.4585 74.1267 65.1252 74.4367 64.8585 74.83C64.5985 75.2167 64.4252 75.6533 64.3385 76.14ZM82.9746 75.73V82H80.8946V76.24C80.8946 75.7933 80.7846 75.3867 80.5646 75.02C80.3513 74.6533 80.0613 74.3633 79.6946 74.15C79.3346 73.93 78.9279 73.82 78.4746 73.82C78.0346 73.82 77.6313 73.93 77.2646 74.15C76.8979 74.3633 76.6046 74.6533 76.3846 75.02C76.1646 75.3867 76.0546 75.7933 76.0546 76.24V82H73.9746V72H76.0546V73.06C76.4013 72.6467 76.8279 72.32 77.3346 72.08C77.8413 71.84 78.3879 71.72 78.9746 71.72C79.7146 71.72 80.3879 71.9 80.9946 72.26C81.6013 72.62 82.0813 73.1033 82.4346 73.71C82.7946 74.3167 82.9746 74.99 82.9746 75.73Z" fill="white"/>
</svg>
