<?xml version="1.0" encoding="utf-8"?>
<!-- Generator: Adobe Illustrator 28.0.0, SVG Export Plug-In . SVG Version: 6.00 Build 0)  -->
<svg version="1.1" id="Ebene_1" xmlns="http://www.w3.org/2000/svg" xmlns:xlink="http://www.w3.org/1999/xlink" x="0px" y="0px"
	 viewBox="0 0 22 26" style="enable-background:new 0 0 22 26;" xml:space="preserve">
<style type="text/css">
	.st0{fill:#FFA336;}
</style>
<path class="st0" d="M1.7,1.8V1C1.5,1,1.3,1.1,1.1,1.2C1,1.4,0.9,1.6,0.9,1.8H1.7z M1.7,22.8H0.9c0,0.2,0.1,0.4,0.2,0.6
	c0.2,0.2,0.4,0.2,0.6,0.2V22.8z M5.7,1v24.2h1.6V1H5.7z M1.7,2.6h16.2V1H1.7V2.6z M20.3,5v14.5h1.6V5H20.3z M17.9,22H1.7v1.6h16.2
	V22z M2.5,22.8v-21H0.9v21H2.5z M20.3,19.6c0,0.6-0.3,1.3-0.7,1.7c-0.5,0.5-1.1,0.7-1.7,0.7v1.6c1.1,0,2.1-0.4,2.9-1.2
	c0.8-0.8,1.2-1.8,1.2-2.9H20.3z M17.9,2.6c0.6,0,1.3,0.3,1.7,0.7c0.5,0.5,0.7,1.1,0.7,1.7h1.6c0-1.1-0.4-2.1-1.2-2.9
	C20,1.4,19,1,17.9,1V2.6z M10.6,9.1h6.5V7.4h-6.5V9.1z"/>
</svg>
