<?xml version="1.0" encoding="utf-8"?>
<!-- Generator: Adobe Illustrator 28.0.0, SVG Export Plug-In . SVG Version: 6.00 Build 0)  -->
<svg version="1.1" id="Ebene_1" xmlns="http://www.w3.org/2000/svg" xmlns:xlink="http://www.w3.org/1999/xlink" x="0px" y="0px"
	 viewBox="0 0 31 17" style="enable-background:new 0 0 31 17;" xml:space="preserve">
<style type="text/css">
	.st0{fill-rule:evenodd;clip-rule:evenodd;fill:#FFA336;}
</style>
<path class="st0" d="M20.5,0.9c0-0.2,0.1-0.4,0.2-0.5c0.1-0.1,0.3-0.2,0.5-0.2h3c0.2,0,0.4,0.1,0.5,0.2C24.9,0.6,25,0.8,25,0.9v1.5
	h2.2c0.2,0,0.4,0.1,0.5,0.2C27.9,2.8,28,3,28,3.2v4.4h2.2V9H28v4.4c0,0.2-0.1,0.4-0.2,0.5c-0.1,0.1-0.3,0.2-0.5,0.2H25v1.5
	c0,0.2-0.1,0.4-0.2,0.5c-0.1,0.1-0.3,0.2-0.5,0.2h-3c-0.2,0-0.4-0.1-0.5-0.2c-0.1-0.1-0.2-0.3-0.2-0.5V9H10v6.6
	c0,0.2-0.1,0.4-0.2,0.5c-0.1,0.1-0.3,0.2-0.5,0.2h-3c-0.2,0-0.4-0.1-0.5-0.2c-0.1-0.1-0.2-0.3-0.2-0.5v-1.5H3.2
	c-0.2,0-0.4-0.1-0.5-0.2s-0.2-0.3-0.2-0.5V9H0.2V7.6h2.3V3.2c0-0.2,0.1-0.4,0.2-0.5C2.8,2.5,3,2.4,3.2,2.4h2.2V0.9
	c0-0.2,0.1-0.4,0.2-0.5C5.8,0.3,6,0.2,6.2,0.2h3c0.2,0,0.4,0.1,0.5,0.2S10,0.8,10,0.9v6.6h10.5V0.9z M7,14.9h1.5V1.7H7V14.9z
	 M5.5,3.9H4v8.8h1.5V3.9z M25,12.7V3.9h1.5v8.8H25z M23.5,1.7v13.2H22V1.7H23.5z"/>
</svg>
